<svg width="39" height="36" viewBox="0 0 39 36" fill="none" xmlns="http://www.w3.org/2000/svg">
<path d="M13.4995 3H25.4995H28.4995L29.9995 4.5L32.9995 6L34.4995 7.5L35.9995 10.5L36.4848 10.8971V23.3382L35.426 26.7353L29.2937 31.6765L25.4995 32.4265V34.5H13.4995L10.4995 33L8.99954 31.5L5.99954 30L4.49954 28.5L2.99954 25.5L1.36719 13.8529L4.85248 7.5L13.4995 3Z" fill="#FECE00"/>
<rect x="1.5" y="10.5" width="1.5" height="1.5" fill="black"/>
<rect x="3" y="9" width="1.5" height="1.5" fill="black"/>
<rect x="3" y="7.5" width="1.5" height="1.5" fill="black"/>
<rect x="4.5" y="6" width="1.5" height="1.5" fill="black"/>
<rect x="6.00391" y="4.5" width="1.5" height="1.5" fill="black"/>
<rect x="7.5" y="4.5" width="1.5" height="1.5" fill="black"/>
<rect x="9" y="3" width="1.5" height="1.5" fill="black"/>
<rect x="10.5" y="1.5" width="1.5" height="1.5" fill="black"/>
<rect x="12" y="1.5" width="1.5" height="1.5" fill="black"/>
<rect x="13.5039" width="1.5" height="1.5" fill="black"/>
<rect x="15" width="1.5" height="1.5" fill="black"/>
<rect x="16.5" width="1.5" height="1.5" fill="black"/>
<rect x="18.0039" width="1.5" height="1.5" fill="black"/>
<rect x="19.5" width="1.5" height="1.5" fill="black"/>
<rect x="21" width="1.5" height="1.5" fill="black"/>
<rect x="22.5" width="1.5" height="1.5" fill="black"/>
<rect x="24" width="1.5" height="1.5" fill="black"/>
<rect x="25.5" y="1.5" width="1.5" height="1.5" fill="black"/>
<rect x="27" y="1.5" width="1.5" height="1.5" fill="black"/>
<rect x="28.5" y="3" width="1.5" height="1.5" fill="black"/>
<rect x="30" y="4.5" width="1.5" height="1.5" fill="black"/>
<rect x="31.5" y="4.5" width="1.5" height="1.5" fill="black"/>
<rect x="33" y="6" width="1.5" height="1.5" fill="black"/>
<rect x="34.5" y="7.5" width="1.5" height="1.5" fill="black"/>
<rect x="34.5" y="9" width="1.5" height="1.5" fill="black"/>
<rect x="36" y="10.5" width="1.5" height="1.5" fill="black"/>
<rect x="37.5" y="12" width="1.5" height="1.5" fill="black"/>
<rect y="12" width="1.5" height="1.5" fill="black"/>
<rect x="37.5" y="13.5" width="1.5" height="1.5" fill="black"/>
<rect y="13.5" width="1.5" height="1.5" fill="black"/>
<rect x="37.5" y="15" width="1.5" height="1.5" fill="black"/>
<rect y="15" width="1.5" height="1.5" fill="black"/>
<rect x="37.5" y="16.5" width="1.5" height="1.5" fill="black"/>
<rect y="16.5" width="1.5" height="1.5" fill="black"/>
<rect x="37.5" y="18" width="1.5" height="1.5" fill="black"/>
<rect y="18" width="1.5" height="1.5" fill="black"/>
<rect x="37.5" y="19.5" width="1.5" height="1.5" fill="black"/>
<rect y="19.5" width="1.5" height="1.5" fill="black"/>
<rect x="37.5" y="21" width="1.5" height="1.5" fill="black"/>
<rect y="21" width="1.5" height="1.5" fill="black"/>
<rect x="37.5" y="22.5" width="1.5" height="1.5" fill="black"/>
<rect y="22.5" width="1.5" height="1.5" fill="black"/>
<rect x="36" y="24" width="1.5" height="1.5" fill="black"/>
<rect x="34.5" y="27" width="1.5" height="1.5" fill="black"/>
<rect x="33" y="28.5" width="1.5" height="1.5" fill="black"/>
<rect x="31.5" y="30" width="1.5" height="1.5" fill="black"/>
<rect x="30" y="30" width="1.5" height="1.5" fill="black"/>
<rect x="28.5" y="31.5" width="1.5" height="1.5" fill="black"/>
<rect x="27" y="33" width="1.5" height="1.5" fill="black"/>
<rect x="25.5" y="33" width="1.5" height="1.5" fill="black"/>
<rect x="24" y="34.5" width="1.5" height="1.5" fill="black"/>
<rect x="22.5" y="34.5" width="1.5" height="1.5" fill="black"/>
<rect x="21" y="34.5" width="1.5" height="1.5" fill="black"/>
<rect x="19.5" y="34.5" width="1.5" height="1.5" fill="black"/>
<rect x="18.0039" y="34.5" width="1.5" height="1.5" fill="black"/>
<rect x="16.5" y="34.5" width="1.5" height="1.5" fill="black"/>
<rect x="15" y="34.5" width="1.5" height="1.5" fill="black"/>
<rect x="13.5039" y="34.5" width="1.5" height="1.5" fill="black"/>
<rect x="12" y="33" width="1.5" height="1.5" fill="black"/>
<rect x="10.5" y="33" width="1.5" height="1.5" fill="black"/>
<rect x="9" y="31.5" width="1.5" height="1.5" fill="black"/>
<rect x="7.5" y="30" width="1.5" height="1.5" fill="black"/>
<rect x="6.00391" y="30" width="1.5" height="1.5" fill="black"/>
<rect x="4.5" y="28.5" width="1.5" height="1.5" fill="black"/>
<rect x="3" y="27" width="1.5" height="1.5" fill="black"/>
<rect x="3" y="25.5" width="1.5" height="1.5" fill="black"/>
<rect x="1.5" y="24" width="1.5" height="1.5" fill="black"/>
<rect x="2.99609" y="10.5" width="1.5" height="1.5" fill="#FFF3C1"/>
<rect x="4.49609" y="9" width="1.5" height="1.5" fill="#FFF3C1"/>
<rect x="4.49609" y="7.5" width="1.5" height="1.5" fill="#FFF3C1"/>
<rect x="5.99609" y="6.00049" width="1.5" height="1.5" fill="#FFF3C1"/>
<rect x="7.49609" y="6.00049" width="1.5" height="1.5" fill="#FFF3C1"/>
<rect x="8.99609" y="4.5" width="1.5" height="1.5" fill="#FFF3C1"/>
<rect x="10.4961" y="3" width="1.5" height="1.5" fill="#FFF3C1"/>
<rect x="11.9961" y="3" width="1.5" height="1.5" fill="#FFF3C1"/>
<rect x="13.4961" y="1.5" width="1.5" height="1.5" fill="#FFF3C1"/>
<rect x="14.9961" y="1.5" width="1.5" height="1.5" fill="#FFF3C1"/>
<rect x="16.4961" y="1.5" width="1.5" height="1.5" fill="#FFF3C1"/>
<rect x="17.9961" y="1.5" width="1.5" height="1.5" fill="#FFF3C1"/>
<rect x="19.5" y="1.5" width="1.5" height="1.5" fill="#FFF3C1"/>
<rect x="20.9961" y="1.5" width="1.5" height="1.5" fill="#FFF3C1"/>
<rect x="22.4961" y="1.5" width="1.5" height="1.5" fill="#FFF3C1"/>
<rect x="23.9961" y="1.5" width="1.5" height="1.5" fill="#FFF3C1"/>
<rect x="1.49609" y="12" width="1.5" height="1.5" fill="#FFF3C1"/>
<rect x="1.49609" y="13.5005" width="1.5" height="1.5" fill="#FFF3C1"/>
<rect x="1.49609" y="15" width="1.5" height="1.5" fill="#FFF3C1"/>
<rect x="1.49609" y="16.5" width="1.5" height="1.5" fill="#FFF3C1"/>
<rect x="1.49609" y="18" width="1.5" height="1.5" fill="#FFF3C1"/>
<rect x="1.49609" y="19.5" width="1.5" height="1.5" fill="#FFF3C1"/>
<rect x="1.49609" y="21" width="1.5" height="1.5" fill="#FFF3C1"/>
<rect x="1.49609" y="22.5" width="1.5" height="1.5" fill="#FFF3C1"/>
<rect x="35.9961" y="12" width="1.5" height="12" fill="#FCE483"/>
<rect x="34.4961" y="24" width="1.5" height="1.5" fill="#FCE483"/>
<rect x="34.4961" y="25.5" width="1.5" height="1.5" fill="#FCE483"/>
<rect x="32.9961" y="27" width="1.5" height="1.5" fill="#FCE483"/>
<rect x="31.5" y="28.5" width="1.5" height="1.5" fill="#FCE483"/>
<rect x="29.9961" y="28.5" width="1.5" height="1.5" fill="#FCE483"/>
<rect x="28.4961" y="30" width="1.5" height="1.5" fill="#FCE483"/>
<rect x="26.9961" y="31.5" width="1.5" height="1.5" fill="#FCE483"/>
<rect x="25.4961" y="31.5" width="1.5" height="1.5" fill="#FCE483"/>
<rect x="22.4961" y="33" width="1.5" height="1.5" fill="#FCE483"/>
<rect x="20.9961" y="33" width="1.5" height="1.5" fill="#FCE483"/>
<rect x="19.5" y="33" width="1.5" height="1.5" fill="#FCE483"/>
<rect x="7.49609" y="10.5" width="1.5" height="1.5" fill="#FC9D05"/>
<rect x="8.99219" y="9" width="1.5" height="1.5" fill="#FC9D05"/>
<rect x="10.4922" y="7.5" width="1.5" height="1.5" fill="#FC9D05"/>
<rect x="26.9922" y="9" width="1.5" height="1.5" fill="#FC9D05"/>
<rect x="11.9922" y="6" width="1.5" height="1.5" fill="#FC9D05"/>
<rect x="13.4922" y="6" width="1.5" height="1.5" fill="#FC9D05"/>
<rect x="14.9961" y="6" width="1.5" height="1.5" fill="#FC9D05"/>
<rect x="16.4922" y="6" width="1.5" height="1.5" fill="#FC9D05"/>
<rect x="17.9922" y="6" width="1.5" height="1.5" fill="#FC9D05"/>
<rect x="17.9922" y="7.5" width="1.5" height="1.5" fill="#FC9D05"/>
<rect x="17.9922" y="9" width="1.5" height="1.5" fill="#FC9D05"/>
<rect x="17.9922" y="10.5" width="1.5" height="1.5" fill="#FC9D05"/>
<rect x="16.4922" y="10.5" width="1.5" height="1.5" fill="#FC9D05"/>
<rect x="14.9961" y="10.5" width="1.5" height="1.5" fill="#FC9D05"/>
<rect x="13.4922" y="10.5" width="1.5" height="1.5" fill="#FC9D05"/>
<rect x="13.4922" y="12" width="1.5" height="1.5" fill="#FC9D05"/>
<rect x="14.9961" y="12" width="1.5" height="1.5" fill="#FC9D05"/>
<rect x="16.4922" y="12" width="1.5" height="1.5" fill="#FC9D05"/>
<rect x="17.9922" y="12" width="1.5" height="1.5" fill="#FC9D05"/>
<rect x="19.4922" y="12" width="1.5" height="1.5" fill="#FC9D05"/>
<rect x="20.9922" y="12" width="1.5" height="1.5" fill="#FC9D05"/>
<rect x="11.9922" y="12" width="1.5" height="1.5" fill="#FC9D05"/>
<rect x="11.9922" y="13.5" width="1.5" height="1.5" fill="#FC9D05"/>
<rect x="11.9922" y="15" width="1.5" height="1.5" fill="#FC9D05"/>
<rect x="11.9922" y="16.5" width="1.5" height="1.5" fill="#FC9D05"/>
<rect x="11.9922" y="18" width="1.5" height="1.5" fill="#FC9D05"/>
<rect x="11.9922" y="19.5" width="1.5" height="1.5" fill="#FC9D05"/>
<rect x="11.9922" y="21" width="1.5" height="1.5" fill="#FC9D05"/>
<rect x="11.9922" y="22.5" width="1.5" height="1.5" fill="#FC9D05"/>
<rect x="13.4922" y="13.5" width="1.5" height="1.5" fill="#FC9D05"/>
<rect x="13.4922" y="15" width="1.5" height="1.5" fill="#FC9D05"/>
<rect x="13.4922" y="16.5" width="1.5" height="1.5" fill="#FC9D05"/>
<rect x="13.4922" y="18" width="1.5" height="1.5" fill="#FC9D05"/>
<rect x="14.9961" y="18" width="1.5" height="1.5" fill="#FC9D05"/>
<rect x="16.4922" y="18" width="1.5" height="1.5" fill="#FC9D05"/>
<rect x="17.9922" y="18" width="1.5" height="1.5" fill="#FC9D05"/>
<rect x="19.4922" y="18" width="1.5" height="1.5" fill="#FC9D05"/>
<rect x="20.9922" y="18" width="1.5" height="1.5" fill="#FC9D05"/>
<rect x="13.4922" y="19.5" width="1.5" height="1.5" fill="#FC9D05"/>
<rect x="13.4922" y="21" width="1.5" height="1.5" fill="#FC9D05"/>
<rect x="13.4922" y="22.5" width="1.5" height="1.5" fill="#FC9D05"/>
<rect x="13.4922" y="22.5" width="1.5" height="1.5" fill="#FC9D05"/>
<rect x="14.9961" y="22.5" width="1.5" height="1.5" fill="#FC9D05"/>
<rect x="16.4922" y="22.5" width="1.5" height="1.5" fill="#FC9D05"/>
<rect x="17.9922" y="22.5" width="1.5" height="1.5" fill="#FC9D05"/>
<rect x="19.4922" y="22.5" width="1.5" height="1.5" fill="#FC9D05"/>
<rect x="20.9922" y="22.5" width="1.5" height="1.5" fill="#FC9D05"/>
<rect x="14.9961" y="24" width="1.5" height="1.5" fill="#FC9D05"/>
<rect x="13.4922" y="24" width="1.5" height="1.5" fill="#FC9D05"/>
<rect x="16.4922" y="24" width="1.5" height="1.5" fill="#FC9D05"/>
<rect x="19.4922" y="24" width="1.5" height="1.5" fill="#FC9D05"/>
<rect x="20.9922" y="24" width="1.5" height="1.5" fill="#FC9D05"/>
<rect x="19.4922" y="10.5" width="1.5" height="1.5" fill="#FC9D05"/>
<rect x="20.9922" y="10.5" width="1.5" height="1.5" fill="#FC9D05"/>
<rect x="22.4922" y="12" width="1.5" height="1.5" fill="#FC9D05"/>
<rect x="22.4922" y="13.5" width="1.5" height="1.5" fill="#FC9D05"/>
<rect x="23.9961" y="13.5" width="1.5" height="1.5" fill="#FC9D05"/>
<rect x="22.4922" y="15" width="1.5" height="1.5" fill="#FC9D05"/>
<rect x="23.9961" y="15" width="1.5" height="1.5" fill="#FC9D05"/>
<rect x="20.9922" y="16.5" width="1.5" height="1.5" fill="#FC9D05"/>
<rect x="22.4922" y="16.5" width="1.5" height="1.5" fill="#FC9D05"/>
<rect x="22.4922" y="18" width="1.5" height="1.5" fill="#FC9D05"/>
<rect x="23.9961" y="18" width="1.5" height="1.5" fill="#FC9D05"/>
<rect x="22.4922" y="19.5" width="1.5" height="1.5" fill="#FC9D05"/>
<rect x="23.9961" y="19.5" width="1.5" height="1.5" fill="#FC9D05"/>
<rect x="22.4922" y="21" width="1.5" height="1.5" fill="#FC9D05"/>
<rect x="23.9961" y="21" width="1.5" height="1.5" fill="#FC9D05"/>
<rect x="22.4922" y="22.5" width="1.5" height="1.5" fill="#FC9D05"/>
<rect x="19.4922" y="16.5" width="1.5" height="1.5" fill="#FC9D05"/>
<rect x="16.4922" y="16.5" width="1.5" height="1.5" fill="#FC9D05"/>
<rect x="14.9961" y="16.5" width="1.5" height="1.5" fill="#FC9D05"/>
<rect x="17.9922" y="12" width="1.5" height="1.5" fill="#FC9D05"/>
<rect x="17.9922" y="13.5" width="1.5" height="1.5" fill="#FC9D05"/>
<rect x="17.9922" y="15" width="1.5" height="1.5" fill="#FC9D05"/>
<rect x="17.9922" y="16.5" width="1.5" height="1.5" fill="#FC9D05"/>
<rect x="17.9922" y="18" width="1.5" height="1.5" fill="#FC9D05"/>
<rect x="17.9922" y="19.5" width="1.5" height="1.5" fill="#FC9D05"/>
<rect x="17.9922" y="21" width="1.5" height="1.5" fill="#FC9D05"/>
<rect x="17.9922" y="22.5" width="1.5" height="1.5" fill="#FC9D05"/>
<rect x="17.9922" y="24" width="1.5" height="1.5" fill="#FC9D05"/>
<rect x="17.9922" y="25.5" width="1.5" height="1.5" fill="#FC9D05"/>
<rect x="17.9922" y="27" width="1.5" height="1.5" fill="#FC9D05"/>
<rect x="19.4922" y="6" width="1.5" height="1.5" fill="#FC9D05"/>
<rect x="20.9922" y="6" width="1.5" height="1.5" fill="#FC9D05"/>
<rect x="22.4922" y="6" width="1.5" height="1.5" fill="#FC9D05"/>
<rect x="23.9961" y="6" width="1.5" height="1.5" fill="#FC9D05"/>
<rect x="25.4922" y="7.5" width="1.5" height="1.5" fill="#FC9D05"/>
<rect x="29.9922" y="12" width="1.5" height="1.5" fill="#FC9D05"/>
<rect x="29.9922" y="13.5" width="1.5" height="1.5" fill="#F9DF6E"/>
<rect x="29.9922" y="15" width="1.5" height="1.5" fill="#F9DF6E"/>
<rect x="29.9922" y="16.5" width="1.5" height="1.5" fill="#F9DF6E"/>
<rect x="29.9922" y="18" width="1.5" height="1.5" fill="#F9DF6E"/>
<rect x="29.9922" y="19.5" width="1.5" height="1.5" fill="#F9DF6E"/>
<rect x="29.9922" y="21" width="1.5" height="1.5" fill="#F9DF6E"/>
<rect x="28.4922" y="22.5" width="1.5" height="1.5" fill="#F9DF6E"/>
<rect x="26.9922" y="24" width="1.5" height="1.5" fill="#F9DF6E"/>
<rect x="25.4922" y="25.5" width="1.5" height="1.5" fill="#F9DF6E"/>
<rect x="23.9961" y="27" width="1.5" height="1.5" fill="#F9DF6E"/>
<rect x="22.4922" y="28.5" width="1.5" height="1.5" fill="#F9DF6E"/>
<rect x="20.9922" y="28.5" width="1.5" height="1.5" fill="#F9DF6E"/>
<rect x="19.4922" y="28.5" width="1.5" height="1.5" fill="#F9DF6E"/>
<rect x="17.9922" y="28.5" width="1.5" height="1.5" fill="#F9DF6E"/>
<rect x="16.4922" y="28.5" width="1.5" height="1.5" fill="#F9DF6E"/>
<rect x="14.9961" y="28.5" width="1.5" height="1.5" fill="#F9DF6E"/>
<rect x="11.9922" y="27" width="1.5" height="1.5" fill="#F9DF6E"/>
<rect x="11.9922" y="25.5" width="1.5" height="1.5" fill="#F9DF6E"/>
<rect x="13.4922" y="25.5" width="1.5" height="1.5" fill="#F9DF6E"/>
<rect x="16.4922" y="21" width="1.5" height="1.5" fill="#F9DF6E"/>
<rect x="19.4922" y="19.5" width="1.5" height="1.5" fill="#F9DF6E"/>
<rect x="26.9922" y="10.5" width="1.5" height="1.5" fill="#F9DF6E"/>
<rect x="26.9922" y="12" width="1.5" height="1.5" fill="#F9DF6E"/>
<rect x="25.4922" y="12" width="1.5" height="1.5" fill="#F9DF6E"/>
<rect x="25.4922" y="13.5" width="1.5" height="1.5" fill="#F9DF6E"/>
<rect x="23.9961" y="7.5" width="1.5" height="1.5" fill="#F9DF6E"/>
<rect x="22.4922" y="7.5" width="1.5" height="1.5" fill="#F9DF6E"/>
<rect x="20.9922" y="7.5" width="1.5" height="1.5" fill="#F9DF6E"/>
<rect x="19.4922" y="7.5" width="1.5" height="1.5" fill="#F9DF6E"/>
<rect x="22.4922" y="9" width="1.5" height="1.5" fill="#F9DF6E"/>
<rect x="20.9922" y="9" width="1.5" height="1.5" fill="#F9DF6E"/>
<rect x="19.4922" y="9" width="1.5" height="1.5" fill="#F9DF6E"/>
<rect x="16.4922" y="13.5" width="1.5" height="1.5" fill="#F9DF6E"/>
<rect x="14.9961" y="13.5" width="1.5" height="1.5" fill="#F9DF6E"/>
<rect x="10.4922" y="16.5" width="1.5" height="1.5" fill="#F9DF6E"/>
<rect x="8.99219" y="18" width="1.5" height="1.5" fill="#F9DF6E"/>
<rect x="10.4922" y="18" width="1.5" height="1.5" fill="#F9DF6E"/>
<rect x="7.49609" y="19.5" width="1.5" height="1.5" fill="#F9DF6E"/>
<rect x="8.99219" y="19.5" width="1.5" height="1.5" fill="#F9DF6E"/>
<rect x="10.4922" y="19.5" width="1.5" height="1.5" fill="#F9DF6E"/>
<rect x="7.49609" y="21" width="1.5" height="1.5" fill="#F9DF6E"/>
<rect x="8.99219" y="21" width="1.5" height="1.5" fill="#F9DF6E"/>
<rect x="10.4922" y="21" width="1.5" height="1.5" fill="#F9DF6E"/>
<rect x="7.49609" y="22.5" width="1.5" height="1.5" fill="#F9DF6E"/>
<rect x="8.99219" y="22.5" width="1.5" height="1.5" fill="#F9DF6E"/>
<rect x="14.9961" y="15" width="1.5" height="1.5" fill="#F9DF6E"/>
<rect x="28.4922" y="10.5" width="1.5" height="1.5" fill="#FC9D05"/>
<rect x="5.99219" y="12" width="1.5" height="1.5" fill="#FC9D05"/>
<rect x="5.99219" y="13.5" width="1.5" height="1.5" fill="#FC9D05"/>
<rect x="5.99219" y="15" width="1.5" height="1.5" fill="#FC9D05"/>
<rect x="5.99219" y="16.5" width="1.5" height="1.5" fill="#FC9D05"/>
<rect x="5.99219" y="18" width="1.5" height="1.5" fill="#FC9D05"/>
<rect x="5.99219" y="19.5" width="1.5" height="1.5" fill="#FC9D05"/>
<rect x="5.99219" y="21" width="1.5" height="1.5" fill="#FC9D05"/>
<rect x="5.99219" y="22.5" width="1.5" height="1.5" fill="#FC9D05"/>
<rect x="7.49609" y="24" width="1.5" height="1.5" fill="#FC9D05"/>
<rect x="8.99219" y="25.5" width="1.5" height="1.5" fill="#FC9D05"/>
<rect x="10.4922" y="27" width="1.5" height="1.5" fill="#FC9D05"/>
<rect x="11.9922" y="28.5" width="1.5" height="1.5" fill="#FC9D05"/>
<rect x="23.9961" y="33" width="1.5" height="1.5" fill="#FCE483"/>
</svg>
