<svg width="281" height="65" viewBox="0 0 281 65" fill="none" xmlns="http://www.w3.org/2000/svg">
<mask id="path-1-outside-1_773_2115" maskUnits="userSpaceOnUse" x="0" y="0" width="281" height="65" fill="black">
<rect fill="white" width="281" height="65"/>
<path fill-rule="evenodd" clip-rule="evenodd" d="M11 5H270V11H276V54H270V60H11V54H5V11H11V5Z"/>
</mask>
<path fill-rule="evenodd" clip-rule="evenodd" d="M11 5H270V11H276V54H270V60H11V54H5V11H11V5Z" fill="white"/>
<path d="M270 5H275V0H270V5ZM11 5V0H6V5H11ZM270 11H265V16H270V11ZM276 11H281V6H276V11ZM276 54V59H281V54H276ZM270 54V49H265V54H270ZM270 60V65H275V60H270ZM11 60H6V65H11V60ZM11 54H16V49H11V54ZM5 54H0V59H5V54ZM5 11V6H0V11H5ZM11 11V16H16V11H11ZM270 0H11V10H270V0ZM275 11V5H265V11H275ZM276 6H270V16H276V6ZM281 54V11H271V54H281ZM270 59H276V49H270V59ZM275 60V54H265V60H275ZM11 65H270V55H11V65ZM6 54V60H16V54H6ZM5 59H11V49H5V59ZM0 11V54H10V11H0ZM11 6H5V16H11V6ZM6 5V11H16V5H6Z" fill="#398E2C" mask="url(#path-1-outside-1_773_2115)"/>
<mask id="path-3-outside-2_773_2115" maskUnits="userSpaceOnUse" x="2" y="2" width="277" height="61" fill="black">
<rect fill="white" x="2" y="2" width="277" height="61"/>
<path fill-rule="evenodd" clip-rule="evenodd" d="M11 5H270V11H276V54H270V60H11V54H5V11H11V5Z"/>
</mask>
<path fill-rule="evenodd" clip-rule="evenodd" d="M11 5H270V11H276V54H270V60H11V54H5V11H11V5Z" fill="#87FE74"/>
<path d="M270 5H273V2H270V5ZM11 5V2H8V5H11ZM270 11H267V14H270V11ZM276 11H279V8H276V11ZM276 54V57H279V54H276ZM270 54V51H267V54H270ZM270 60V63H273V60H270ZM11 60H8V63H11V60ZM11 54H14V51H11V54ZM5 54H2V57H5V54ZM5 11V8H2V11H5ZM11 11V14H14V11H11ZM270 2H11V8H270V2ZM273 11V5H267V11H273ZM276 8H270V14H276V8ZM279 54V11H273V54H279ZM270 57H276V51H270V57ZM273 60V54H267V60H273ZM11 63H270V57H11V63ZM8 54V60H14V54H8ZM5 57H11V51H5V57ZM2 11V54H8V11H2ZM11 8H5V14H11V8ZM8 5V11H14V5H8Z" fill="black" mask="url(#path-3-outside-2_773_2115)"/>
<path d="M37 21L31 32.5L37 44" stroke="black" stroke-width="2"/>
<path d="M27 44L21 32.5L27 21" stroke="black" stroke-width="2"/>
<path d="M248 21L254 32.5L248 44" stroke="black" stroke-width="2"/>
<path d="M258 21L264 32.5L258 44" stroke="black" stroke-width="2"/>
<path d="M106.5 27.5H109.5V30.5H111V32H112.5V30.5H114V27.5H117V38H114V33.5H109.5V38H106.5V27.5ZM120 27.5H126V29H124.5V36.5H126V38H120V36.5H121.5V29H120V27.5ZM130.5 27.5H133.5V29H135V30.5H136.5V27.5H139.5V38H136.5V33.5H135V32H133.5V38H130.5V27.5ZM142.5 27.5H151.5V29H148.5V38H145.5V29H142.5V27.5ZM154.5 27.5H163.5V29H157.5V32H162V33.5H157.5V36.5H163.5V38H154.5V27.5ZM165 27.5H174V29H175.5V36.5H174V38H166.5V29H165V27.5ZM169.5 29V36.5H172.5V29H169.5Z" fill="black"/>
</svg>
