<svg width="281" height="65" viewBox="0 0 281 65" fill="none" xmlns="http://www.w3.org/2000/svg">
<mask id="path-1-outside-1_679_2159" maskUnits="userSpaceOnUse" x="0" y="0" width="281" height="65" fill="black">
<rect fill="white" width="281" height="65"/>
<path fill-rule="evenodd" clip-rule="evenodd" d="M11 5H270V11H276V54H270V60H11V54H5V11H11V5Z"/>
</mask>
<path fill-rule="evenodd" clip-rule="evenodd" d="M11 5H270V11H276V54H270V60H11V54H5V11H11V5Z" fill="white"/>
<path d="M270 5H275V0H270V5ZM11 5V0H6V5H11ZM270 11H265V16H270V11ZM276 11H281V6H276V11ZM276 54V59H281V54H276ZM270 54V49H265V54H270ZM270 60V65H275V60H270ZM11 60H6V65H11V60ZM11 54H16V49H11V54ZM5 54H0V59H5V54ZM5 11V6H0V11H5ZM11 11V16H16V11H11ZM270 0H11V10H270V0ZM275 11V5H265V11H275ZM276 6H270V16H276V6ZM281 54V11H271V54H281ZM270 59H276V49H270V59ZM275 60V54H265V60H275ZM11 65H270V55H11V65ZM6 54V60H16V54H6ZM5 59H11V49H5V59ZM0 11V54H10V11H0ZM11 6H5V16H11V6ZM6 5V11H16V5H6Z" fill="#2C428E" mask="url(#path-1-outside-1_679_2159)"/>
<mask id="path-3-outside-2_679_2159" maskUnits="userSpaceOnUse" x="2" y="2" width="277" height="61" fill="black">
<rect fill="white" x="2" y="2" width="277" height="61"/>
<path fill-rule="evenodd" clip-rule="evenodd" d="M11 5H270V11H276V54H270V60H11V54H5V11H11V5Z"/>
</mask>
<path fill-rule="evenodd" clip-rule="evenodd" d="M11 5H270V11H276V54H270V60H11V54H5V11H11V5Z" fill="#74C9FE"/>
<path d="M270 5H273V2H270V5ZM11 5V2H8V5H11ZM270 11H267V14H270V11ZM276 11H279V8H276V11ZM276 54V57H279V54H276ZM270 54V51H267V54H270ZM270 60V63H273V60H270ZM11 60H8V63H11V60ZM11 54H14V51H11V54ZM5 54H2V57H5V54ZM5 11V8H2V11H5ZM11 11V14H14V11H11ZM270 2H11V8H270V2ZM273 11V5H267V11H273ZM276 8H270V14H276V8ZM279 54V11H273V54H279ZM270 57H276V51H270V57ZM273 60V54H267V60H273ZM11 63H270V57H11V63ZM8 54V60H14V54H8ZM5 57H11V51H5V57ZM2 11V54H8V11H2ZM11 8H5V14H11V8ZM8 5V11H14V5H8Z" fill="black" mask="url(#path-3-outside-2_679_2159)"/>
<path d="M31 21L37 32.5L31 44" stroke="black" stroke-width="2"/>
<path d="M21 21L27 32.5L21 44" stroke="black" stroke-width="2"/>
<path d="M254 21L248 32.5L254 44" stroke="black" stroke-width="2"/>
<path d="M264 21L258 32.5L264 44" stroke="black" stroke-width="2"/>
<path d="M76.5 27.5H79.5V30.5H81V32H82.5V30.5H84V27.5H87V38H84V33.5H79.5V38H76.5V27.5ZM90 27.5H96V29H94.5V36.5H96V38H90V36.5H91.5V29H90V27.5ZM100.5 27.5H103.5V29H105V30.5H106.5V27.5H109.5V38H106.5V33.5H105V32H103.5V38H100.5V27.5ZM112.5 27.5H121.5V29H118.5V38H115.5V29H112.5V27.5ZM138 29H145.5V30.5H147V32H144V30.5H142.5V33.5H145.5V35H147V38H145.5V39.5H138V38H136.5V36.5H139.5V38H141V35H138V33.5H136.5V30.5H138V29ZM139.5 30.5V33.5H141V30.5H139.5ZM142.5 35V38H144V35H142.5ZM148.5 27.5H156V29H157.5V32H156V33.5H157.5V36.5H156V38H148.5V27.5ZM151.5 29V32H154.5V29H151.5ZM151.5 33.5V36.5H154.5V33.5H151.5ZM162 27.5H165V36.5H169.5V38H162V27.5ZM174 27.5H180V29H181.5V36.5H180V38H174V36.5H172.5V29H174V27.5ZM175.5 29V36.5H178.5V29H175.5ZM184.5 27.5H192V29H193.5V32H192V33.5H193.5V36.5H192V38H184.5V27.5ZM187.5 29V32H190.5V29H187.5ZM187.5 33.5V36.5H190.5V33.5H187.5ZM196.5 27.5H205.5V29H199.5V32H204V33.5H199.5V36.5H205.5V38H196.5V27.5Z" fill="black"/>
</svg>
